<svg width="150" height="28" viewBox="0 0 150 28" fill="none" xmlns="http://www.w3.org/2000/svg">
<path d="M50.6513 9.50327H47.7216V19.7019H46.1362V9.50327H43.2203V8.29568H50.6513V9.50327Z" fill="black"/>
<path d="M59.6195 15.5754C59.6195 16.928 59.268 17.9836 58.5717 18.7358C57.8756 19.4879 56.938 19.8674 55.7593 19.8674C54.6012 19.8674 53.6775 19.4879 52.9951 18.7358C52.3127 17.9836 51.968 16.928 51.968 15.5754V12.4427C51.968 11.0972 52.3127 10.0414 52.9951 9.27549C53.6844 8.51647 54.6012 8.13011 55.7524 8.13011C56.9242 8.13011 57.8549 8.50962 58.5579 9.27549C59.261 10.0414 59.6126 11.0903 59.6126 12.4427V15.5754H59.6195ZM58.041 12.4151C58.041 11.4215 57.8411 10.6694 57.4482 10.1519C57.0483 9.6412 56.49 9.37897 55.7662 9.37897C55.0493 9.37897 54.5048 9.63436 54.1187 10.1519C53.7395 10.6694 53.5466 11.4215 53.5466 12.4151V15.5754C53.5466 16.576 53.7395 17.335 54.1187 17.8526C54.5048 18.3701 55.0493 18.6254 55.7593 18.6254C56.49 18.6254 57.0552 18.3701 57.4482 17.8526C57.8411 17.3419 58.041 16.576 58.041 15.5686V12.4151Z" fill="black"/>
<path d="M63.4797 14.5888H62.3905V19.7019H60.7982V8.29568H62.3905V13.3122H63.3349L66.3473 8.29568H68.2429L64.6585 13.7124L68.5187 19.7088H66.5748L63.4797 14.5888Z" fill="black"/>
<path d="M73.5025 13.8366H73.5508L75.8807 8.29568H77.6454L74.2952 15.5962V19.7019H72.7167V15.4927L69.4079 8.29568H71.1863L73.5025 13.8366Z" fill="black"/>
<path d="M86.2067 15.5754C86.2067 16.928 85.8552 17.9836 85.1589 18.7358C84.4627 19.4879 83.5253 19.8674 82.3465 19.8674C81.1885 19.8674 80.2648 19.4879 79.5823 18.7358C78.8999 17.9836 78.5552 16.928 78.5552 15.5754V12.4427C78.5552 11.0972 78.8999 10.0414 79.5823 9.27549C80.2716 8.51647 81.1885 8.13011 82.3396 8.13011C83.5115 8.13011 84.442 8.50962 85.1451 9.27549C85.8483 10.0414 86.1998 11.0903 86.1998 12.4427V15.5754H86.2067ZM84.6281 12.4151C84.6281 11.4215 84.4282 10.6694 84.0353 10.1519C83.6356 9.6412 83.0772 9.37897 82.3533 9.37897C81.6365 9.37897 81.0919 9.63436 80.7059 10.1519C80.3268 10.6694 80.1338 11.4215 80.1338 12.4151V15.5754C80.1338 16.576 80.3268 17.335 80.7059 17.8526C81.0919 18.3701 81.6365 18.6254 82.3465 18.6254C83.0772 18.6254 83.6424 18.3701 84.0353 17.8526C84.4282 17.3419 84.6281 16.576 84.6281 15.5686V12.4151Z" fill="black"/>
<path d="M95.506 10.076H92.9348V19.7019H90.7152V10.076H88.1646V8.29568H95.506V10.076Z" fill="#E31931"/>
<path d="M103.392 14.6992H99.566V17.9285H104.067V19.7088H97.3326V8.29568H104.047V10.0759H99.5591V12.9189H103.385V14.6992H103.392Z" fill="#E31931"/>
<path d="M113.263 16.0309L113.284 16.0791C113.29 17.335 112.994 18.2804 112.394 18.9152C111.788 19.55 110.899 19.8743 109.72 19.8743C108.541 19.8743 107.597 19.5155 106.894 18.791C106.19 18.0665 105.839 17.0452 105.839 15.7134V12.3047C105.839 10.9868 106.177 9.95869 106.859 9.22725C107.542 8.49582 108.451 8.13695 109.596 8.13695C110.809 8.13695 111.719 8.46129 112.339 9.10988C112.96 9.75857 113.277 10.7177 113.297 11.9873L113.277 12.0356H111.133C111.167 11.2835 111.064 10.7453 110.83 10.4141C110.595 10.0828 110.182 9.91721 109.603 9.91721C109.099 9.91721 108.72 10.1105 108.451 10.5038C108.183 10.8971 108.052 11.4905 108.052 12.2841V15.7134C108.052 16.5208 108.196 17.1142 108.479 17.5076C108.762 17.9009 109.182 18.0941 109.727 18.0941C110.264 18.0941 110.637 17.9423 110.85 17.6249C111.064 17.3143 111.154 16.783 111.126 16.0309H113.263Z" fill="#E31931"/>
<path d="M122.424 19.7019H120.198V14.9751H116.661V19.7019H114.428V8.29568H116.661V13.2018H120.198V8.29568H122.424V19.7019Z" fill="#E31931"/>
<path d="M126.326 17.9216H130.489V19.7019H124.092V8.29568H126.326V17.9216Z" fill="#E31931"/>
<path d="M137.658 17.2661H134.653L134.039 19.7019H131.792L135.004 8.29568H137.321L140.526 19.7019H138.279L137.658 17.2661ZM135.108 15.4858H137.203L136.176 11.4491H136.128L135.108 15.4858Z" fill="#E31931"/>
<path d="M141.312 19.7019V8.29568H144.669C145.841 8.29568 146.757 8.55792 147.419 9.08238C148.081 9.60675 148.411 10.3796 148.411 11.4146C148.411 11.9598 148.294 12.4428 148.054 12.8568C147.812 13.2777 147.454 13.5951 146.971 13.8022C147.571 13.9401 148.012 14.2506 148.302 14.7198C148.591 15.189 148.729 15.7411 148.729 16.376C148.729 17.4662 148.419 18.2942 147.791 18.86C147.164 19.4258 146.275 19.7088 145.11 19.7088H141.312V19.7019ZM143.545 13.1121H144.772C145.227 13.1052 145.571 12.9672 145.82 12.7188C146.061 12.4634 146.185 12.0977 146.185 11.6217C146.185 11.0904 146.061 10.6971 145.806 10.4486C145.558 10.2002 145.179 10.0759 144.669 10.0759H143.538V13.1121H143.545ZM143.545 14.6715V17.9216H145.117C145.585 17.9216 145.937 17.7905 146.171 17.5283C146.406 17.2661 146.523 16.8796 146.523 16.3621C146.523 15.817 146.426 15.403 146.227 15.1063C146.027 14.8165 145.709 14.6647 145.269 14.6647H143.545V14.6715Z" fill="#E31931"/>
<path d="M12.7119 10.5634C12.7119 15.0797 3.4777 25.4545 1.89908 25.4545C1.54474 25.4545 1.27118 25.1717 1.27118 24.826C1.27118 22.541 8.13292 15.5376 8.13292 11.0573C8.13292 5.93939 2.41035 4.60607 2.41035 3.23681C2.41035 2.94501 2.70635 2.54995 3.15482 2.54995C4.50921 2.54546 12.7119 5.91695 12.7119 10.5634Z" fill="#E31931"/>
<path d="M21.8652 10.5634C21.8652 15.0797 12.631 25.4545 11.0524 25.4545C10.6981 25.4545 10.4245 25.1717 10.4245 24.826C10.4245 22.541 17.2862 15.5376 17.2862 11.0573C17.2862 5.93939 11.5637 4.60607 11.5637 3.23681C11.5637 2.94501 11.8596 2.54995 12.3081 2.54995C13.6625 2.54546 21.8652 5.91695 21.8652 10.5634Z" fill="black"/>
<path d="M24.1526 17.4366C24.1526 12.9158 33.3868 2.54546 34.9654 2.54546C35.3197 2.54546 35.5933 2.82828 35.5933 3.17396C35.5933 5.45903 28.7315 12.4624 28.7315 16.9427C28.7315 22.0606 34.4542 23.3939 34.4542 24.7632C34.4542 25.055 34.1582 25.4501 33.7097 25.4501C32.3553 25.4501 24.1526 22.083 24.1526 17.4366Z" fill="black"/>
</svg>
